<svg width="20" height="20" viewBox="0 0 20 20" fill="none" xmlns="http://www.w3.org/2000/svg">
<path d="M0.253011 0.169633C0.359708 0.0791031 0.490645 0.0219061 0.629565 0.00514393C0.768485 -0.0116182 0.909268 0.0127928 1.03444 0.0753462L19.6058 9.36121C19.7243 9.42059 19.8239 9.51177 19.8935 9.62455C19.9631 9.73733 20 9.86725 20 9.99979C20 10.1323 19.9631 10.2622 19.8935 10.375C19.8239 10.4878 19.7243 10.579 19.6058 10.6384L1.03444 19.9242C0.909353 19.9869 0.768605 20.0115 0.629665 19.995C0.490725 19.9784 0.359714 19.9214 0.252897 19.831C0.14608 19.7406 0.0681626 19.6208 0.0288181 19.4865C-0.0105263 19.3523 -0.0095646 19.2094 0.031584 19.0756L2.82443 9.99979L0.031584 0.923931C-0.00932926 0.790325 -0.0101583 0.647653 0.0291993 0.51358C0.0685569 0.379508 0.146373 0.259923 0.253011 0.169633ZM4.0987 10.7141L1.88872 17.8999L17.6886 9.99979L1.88872 2.09966L4.0987 9.28549H12.1429C12.3324 9.28549 12.5141 9.36075 12.648 9.4947C12.782 9.62866 12.8572 9.81034 12.8572 9.99979C12.8572 10.1892 12.782 10.3709 12.648 10.5049C12.5141 10.6388 12.3324 10.7141 12.1429 10.7141H4.0987Z" fill="white"/>
</svg>
